<?xml version="1.0" encoding="utf-8"?>
<!-- Generator: Adobe Illustrator 24.0.0, SVG Export Plug-In . SVG Version: 6.00 Build 0)  -->
<svg version="1.1" id="Laag_1" xmlns="http://www.w3.org/2000/svg" xmlns:xlink="http://www.w3.org/1999/xlink" x="0px" y="0px"
	 viewBox="0 0 93.9 70.3" style="enable-background:new 0 0 93.9 70.3;" xml:space="preserve">
<style type="text/css">
	.st0{fill:none;stroke:#FFFFFF10;stroke-width:0.15;stroke-miterlimit:10;}
</style>
<title>Middel 1</title>
<g id="Laag_2_1_">
	<g id="Laag_1-2">
		<path class="st0" d="M75,46.9c5.4,3.3,9.1,5.3,10.7,5.8l8.2-8.2c-2-0.7-7.8-4.2-12.8-7.1c-4.1-2.4-7.9-3.4-11.3-1.9l-0.2-0.2
			c2.1-4.5,1.5-9.9-1.6-13.8V11c-0.3-0.4-0.6-0.8-1-1.1c-3.2-3.3-6.8-4.6-10.6-4.2c-2.7,0.4-5.2,1.4-7.4,3c-0.4-0.5-0.9-1-1.4-1.5
			C43.4,3.1,39,0.8,34.7,0v10.6c-2.1-0.4-4.3-0.4-6.4-0.1c-3.8,0.6-7.3,2-10.5,4.2c-2.8,1.9-5.4,4.1-7.8,6.5
			c-3.6,3.6-7,7.4-10.1,11.5l17.8,17.8v-6.3L34.7,61l0,0c7.3-7.1,9.3-9,14.6-14.1L43,40.6c-2.3,2.4-4,4.4-6.1,6.5L34.7,45L17.8,28.1
			v6.3l-4.1-4.1c0.9-1.4,2-2.7,3.3-3.9c0.3-0.3,0.5-0.5,0.8-0.7c5.3-4.8,11.2-5.9,16.9-2.7V12.4c1.7,1,3.3,2.2,4.7,3.6l0.6,0.7
			c6.3,6.8,6.9,13.6,3,19.7l6.3,6.3l17.9,17.9l0.8-0.9v10.6l7-7l-7-7V45.6l-6.8-6.8l2.4-2.4c1.2-1.3,2.7-2.2,4.4-2.5v10.6
			C69.9,44.3,72,45,75,46.9 M58.6,29.9L55.4,33l-0.5-0.5l-9.2-9.2c1-1.4,2.1-2.7,3.3-3.9c1.3-1.5,3.1-2.5,5-3c2.1-0.4,4.3,0.4,5.7,2
			c3.1,3.1,2.7,7.4-1.2,11.4"/>
	</g>
</g>
</svg>
