<svg xmlns="http://www.w3.org/2000/svg" viewBox="0 0 68.2 32.93"><defs><style>.cls-1{opacity:0.05;}.cls-2{fill:none;stroke:#000;stroke-miterlimit:10;stroke-width:0.25px;}</style></defs><title>Middel 1</title><g id="Laag_2" data-name="Laag 2"><g id="Laag_1-2" data-name="Laag 1"><g id="Laag_2-2" data-name="Laag 2" class="cls-1"><g id="Laag_1-2-2" data-name="Laag 1-2"><path class="cls-2" d="M68.1,11.15a11.65,11.65,0,0,0-1-1.11c-3.21-3.28-6.82-4.59-10.59-4.17a17,17,0,0,0-7.41,3c-.44-.49-.89-1-1.37-1.46C43.49,3.21,39.1.92,34.77.15V10.73a20.08,20.08,0,0,0-6.38-.09,24.94,24.94,0,0,0-10.47,4.17,50.4,50.4,0,0,0-7.76,6.52A101.2,101.2,0,0,0,.1,32.86"/></g></g></g></g></svg>