<?xml version="1.0" encoding="utf-8"?>
<!-- Generator: Adobe Illustrator 24.0.0, SVG Export Plug-In . SVG Version: 6.00 Build 0)  -->
<svg version="1.1" id="Laag_1" xmlns="http://www.w3.org/2000/svg" xmlns:xlink="http://www.w3.org/1999/xlink" x="0px" y="0px"
	 viewBox="0 0 32 32" style="enable-background:new 0 0 32 32;" xml:space="preserve">
<style type="text/css">
	.st0{fill:none;stroke:#A0CEE3;stroke-linecap:round;stroke-miterlimit:10;}
</style>
<g>
	<path class="st0" d="M11.7,7.7c-3.8-0.7-6.9,0-8.1,2c-0.9,1.5-0.6,3.6,0.7,5.7 M6.3,18.2c1.6,1.7,3.6,3.4,6.1,4.8
		c5.8,3.3,11.9,4.1,14.8,2.2 M29.8,24.1c0-0.9-0.7-1.6-1.6-1.6s-1.6,0.7-1.6,1.6s0.7,1.6,1.6,1.6S29.8,24.9,29.8,24.1L29.8,24.1z"/>
	<path class="st0" d="M26.1,17.7c2.5-2.9,3.5-5.9,2.3-7.9c-0.9-1.5-2.8-2.3-5.2-2.3 M19.7,7.9c-2.3,0.5-4.8,1.4-7.3,2.9
		c-6,3.4-9.8,8.4-9.3,11.9 M3.7,25.6c0.9,0,1.6-0.7,1.6-1.6s-0.7-1.6-1.6-1.6s-1.6,0.7-1.6,1.6S2.8,25.6,3.7,25.6L3.7,25.6L3.7,25.6
		z"/>
	<path class="st0" d="M10.2,25.1c1.3,3.6,3.4,5.9,5.8,5.9c1.7,0,3.3-1.2,4.6-3.3 M22.1,24.3c0.7-2.2,1.1-4.7,1.1-7.5
		c0-6.8-2.4-12.4-5.6-13.8 M16,4.3c0.9,0,1.6-0.7,1.6-1.6S16.9,1.1,16,1.1c-0.9,0-1.6,0.7-1.6,1.6S15.1,4.3,16,4.3z"/>
	<path class="st0" d="M16.3,18.2c-0.8,0.2-1.5-0.3-1.7-1.1c-0.2-0.8,0.3-1.5,1.1-1.7c0.8-0.2,1.5,0.3,1.7,1.1
		C17.6,17.3,17.1,18.1,16.3,18.2z"/>
</g>
</svg>
