<?xml version="1.0" encoding="utf-8"?>
<!-- Generator: Adobe Illustrator 24.0.0, SVG Export Plug-In . SVG Version: 6.00 Build 0)  -->
<svg version="1.1" id="Laag_1" xmlns="http://www.w3.org/2000/svg" xmlns:xlink="http://www.w3.org/1999/xlink" x="0px" y="0px"
	 viewBox="0 0 255.1 289.3" style="enable-background:new 0 0 255.1 289.3;" xml:space="preserve">
<style type="text/css">
	.st0{fill:#E44D26;}
	.st1{fill:#F16529;}
	.st2{fill:#EBEBEB;}
	.st3{fill:#FFFFFF;}
</style>
<g>
	<path class="st0" d="M255.1,0l-23.2,260.4l-104.5,29L23.2,260.4L0,0H255.1L255.1,0z"/>
	<path class="st1" d="M127.6,267.2l84.4-23.4l19.9-222.5H127.6V267.2L127.6,267.2z"/>
	<path class="st2" d="M82.4,85.2h45.2V53.2H47.5l0.8,8.6l7.8,88h71.5v-31.9H85.3L82.4,85.2L82.4,85.2z"/>
	<path class="st2" d="M89.6,165.8H57.5l4.5,50.1l65.4,18.2l0.1,0v-33.2l-0.1,0l-35.6-9.6L89.6,165.8L89.6,165.8z"/>
	<path class="st3" d="M127.4,149.8h39.3l-3.7,41.4l-35.6,9.6v33.2l65.5-18.1l0.5-5.4l7.5-84.1l0.8-8.6h-74.2V149.8L127.4,149.8z"/>
	<path class="st3" d="M127.4,85.1L127.4,85.1l77.1,0.1l0.6-7.2l1.5-16.2l0.8-8.6h-80V85.1L127.4,85.1z"/>
</g>
</svg>
