<svg xmlns="http://www.w3.org/2000/svg" viewBox="0 0 135.96 135.96">
    <defs>
        <style>
            .cls-1,
            .cls-2,
            .cls-3,
            .cls-4,
            .cls-5,
            .cls-6 {
                fill: none;
            }

            .cls-1,
            .cls-2,
            .cls-3,
            .cls-4,
            .cls-5 {
                stroke: #af9351;
                stroke-miterlimit: 10;
                stroke-width: 4px;
            }

            .cls-2 {
                stroke-dasharray: 11.35 11.35;
            }

            .cls-3 {
                stroke-dasharray: 9.67 9.67;
            }

            .cls-4 {
                stroke-dasharray: 9.05 9.05;
            }

            .cls-5 {
                stroke-dasharray: 9.05 9.05;
            }
        </style>
    </defs>
    <title>prototype_design</title>
    <g id="Laag_2" data-name="Laag 2">
        <g id="Laag_1-2" data-name="Laag 1">
            <path class="cls-1" d="M50,83.41l-.15,47.35,75.06-43L84,63.94" />
            <path class="cls-1" d="M84,63.94a40.11,40.11,0,0,0,2.61-5.4" />
            <path class="cls-2" d="M89.2,47.52c.08-1,.13-2.09.13-3.15a39.16,39.16,0,1,0-50.8,37.28" />
            <path class="cls-1" d="M44.06,82.93a39.33,39.33,0,0,0,6,.48" />
            <path class="cls-1" d="M84,63.94a39,39,0,0,1-3.41,4.93" />
            <path class="cls-3" d="M73.68,75.56A39.13,39.13,0,0,1,60.75,82" />
            <path class="cls-1" d="M56,83a40.8,40.8,0,0,1-6,.44" />
            <line class="cls-1" x1="50.04" y1="83.41" x2="50.06" y2="77.41" />
            <line class="cls-4" x1="50.09" y1="68.35" x2="50.14" y2="54.77" />
            <polyline class="cls-1" points="50.15 50.25 50.17 44.25 55.36 47.26" />
            <line class="cls-5" x1="63.18" y1="51.81" x2="74.92" y2="58.64" />
            <line class="cls-1" x1="78.83" y1="60.92" x2="84.02" y2="63.94" />
            <rect class="cls-6" width="135.96" height="135.96" />
        </g>
    </g>
</svg>